# Blender v2.92.0 OBJ File: ''
# www.blender.org
mtllib gem_heart.mtl
o gem_heart
v 9.617188 21.500000 0.440921
v 0.515137 18.062500 0.451418
v 6.382813 10.734374 10.601564
v 10.492188 13.710938 11.351565
v -6.558594 13.117188 11.101565
v -15.210938 23.750000 0.553226
v 6.882813 9.929688 10.960939
v -6.750000 12.249999 11.476565
v -16.968750 1.267577 8.554688
v 3.505859 -23.140625 0.601071
v 16.421875 3.722655 10.851563
v 16.328125 4.773437 11.101564
v 10.945313 12.703124 11.804690
v 17.250000 3.564452 10.312500
v 5.253906 -20.718750 0.598631
v 22.703125 6.617188 0.530274
v 17.171875 4.617187 10.570314
v 22.625000 7.613281 0.528810
v 10.601563 21.109375 0.525882
v 11.562500 13.484374 11.234377
v -16.453125 23.500000 0.409915
v -27.031250 3.878906 0.386719
v -17.859375 1.923827 8.296875
v -7.644531 12.757812 11.140627
v -17.875000 0.879882 8.000000
v -26.562500 2.740234 0.542969
v 0.598145 -20.750000 0.542966
v 9.617188 21.500000 -0.440915
v 10.492188 13.710939 -11.351562
v 6.382813 10.734376 -10.601562
v 0.515137 18.062500 -0.451414
v -6.558594 13.117189 -11.101562
v -15.210938 23.750000 -0.553220
v 16.421875 3.724610 -10.851563
v 3.505859 -23.140625 -0.392825
v -16.968750 1.267579 -8.554688
v 16.328125 4.773439 -11.101562
v 6.882813 9.929689 -10.960938
v -6.750000 12.250001 -11.476562
v 10.945313 12.703126 -11.804687
v 17.250000 3.564454 -10.312500
v 22.703125 6.617188 -0.816405
v 5.253906 -20.718750 -0.598635
v 17.171875 4.617189 -10.570312
v 11.562500 13.484376 -11.234373
v 10.601563 21.109375 -0.525877
v 22.625000 7.613281 -0.810546
v -16.453125 23.500000 -0.409909
v -7.644531 12.757814 -11.140623
v -17.859375 1.923829 -8.296875
v -27.031250 3.878906 -0.386719
v -17.875000 0.879884 -8.000000
v 0.598145 -20.750000 -0.542971
v -26.562500 2.740234 -0.542969
v -27.031250 3.878906 -0.386719
v -26.562500 2.740234 -0.542969
v -26.562500 2.740234 0.542969
v -27.031250 3.878906 0.386719
v -16.453125 23.500000 0.409915
v -15.210938 23.750000 0.553226
v -15.210938 23.750000 -0.553220
v -16.453125 23.500000 -0.409909
v -7.644531 12.757812 11.140627
v -6.750000 12.249999 11.476565
v -6.558594 13.117188 11.101565
v 10.945313 12.703124 11.804690
v 11.562500 13.484374 11.234377
v 10.492188 13.710938 11.351565
v -17.875000 0.879882 8.000000
v -16.968750 1.267577 8.554688
v -17.859375 1.923827 8.296875
v 11.562500 13.484376 -11.234373
v 10.945313 12.703126 -11.804687
v 10.492188 13.710939 -11.351562
v 9.617188 21.500000 0.440921
v 10.601563 21.109375 0.525882
v 10.601563 21.109375 -0.525877
v 9.617188 21.500000 -0.440915
v -6.558594 13.117189 -11.101562
v -6.750000 12.250001 -11.476562
v -7.644531 12.757814 -11.140623
v 5.253906 -20.718750 -0.598635
v 5.253906 -20.718750 0.598631
v 3.505859 -23.140625 0.601071
v 3.505859 -23.140625 -0.392825
v -17.859375 1.923829 -8.296875
v -16.968750 1.267579 -8.554688
v -17.875000 0.879884 -8.000000
v -16.453125 23.500000 0.409915
v -16.453125 23.500000 -0.409909
v -27.031250 3.878906 -0.386719
v -27.031250 3.878906 0.386719
v 0.515137 18.062500 0.451418
v 0.515137 18.062500 -0.451414
v -15.210938 23.750000 -0.553220
v -15.210938 23.750000 0.553226
v -15.210938 23.750000 0.553226
v -16.453125 23.500000 0.409915
v -7.644531 12.757812 11.140627
v -6.558594 13.117188 11.101565
v 6.882813 9.929688 10.960939
v 6.382813 10.734374 10.601564
v 6.382813 10.734374 10.601564
v 6.882813 9.929688 10.960939
v 10.945313 12.703124 11.804690
v 10.492188 13.710938 11.351565
v 3.505859 -23.140625 0.601071
v 5.253906 -20.718750 0.598631
v 17.250000 3.564452 10.312500
v 16.421875 3.722655 10.851563
v 11.562500 13.484374 11.234377
v 10.945313 12.703124 11.804690
v 16.328125 4.773437 11.101564
v 17.171875 4.617187 10.570314
v 10.492188 13.710938 11.351565
v 11.562500 13.484374 11.234377
v 10.601563 21.109375 0.525882
v 9.617188 21.500000 0.440921
v -27.031250 3.878906 0.386719
v -26.562500 2.740234 0.542969
v -17.875000 0.879882 8.000000
v -17.859375 1.923827 8.296875
v -6.750000 12.249999 11.476565
v -7.644531 12.757812 11.140627
v -17.859375 1.923827 8.296875
v -16.968750 1.267577 8.554688
v -16.968750 1.267577 8.554688
v -17.875000 0.879882 8.000000
v 0.598145 -20.750000 0.542966
v 3.505859 -23.140625 0.601071
v 9.617188 21.500000 -0.440915
v 10.601563 21.109375 -0.525877
v 11.562500 13.484376 -11.234373
v 10.492188 13.710939 -11.351562
v 0.515137 18.062500 -0.451414
v 0.515137 18.062500 0.451418
v 9.617188 21.500000 0.440921
v 9.617188 21.500000 -0.440915
v 10.492188 13.710939 -11.351562
v 10.945313 12.703126 -11.804687
v 6.882813 9.929689 -10.960938
v 6.382813 10.734376 -10.601562
v -6.558594 13.117189 -11.101562
v -7.644531 12.757814 -11.140623
v -16.453125 23.500000 -0.409909
v -15.210938 23.750000 -0.553220
v 6.382813 10.734376 -10.601562
v 6.882813 9.929689 -10.960938
v -6.750000 12.250001 -11.476562
v -6.558594 13.117189 -11.101562
v 17.171875 4.617189 -10.570312
v 16.328125 4.773439 -11.101562
v 10.945313 12.703126 -11.804687
v 11.562500 13.484376 -11.234373
v 16.421875 3.724610 -10.851563
v 17.250000 3.564454 -10.312500
v 5.253906 -20.718750 -0.598635
v 3.505859 -23.140625 -0.392825
v 22.703125 6.617188 -0.816405
v 22.703125 6.617188 0.530274
v 10.601563 21.109375 -0.525877
v 10.601563 21.109375 0.525882
v 22.625000 7.613281 0.528810
v 22.625000 7.613281 -0.810546
v -17.859375 1.923829 -8.296875
v -17.875000 0.879884 -8.000000
v -26.562500 2.740234 -0.542969
v -27.031250 3.878906 -0.386719
v -16.968750 1.267579 -8.554688
v -17.859375 1.923829 -8.296875
v -7.644531 12.757814 -11.140623
v -6.750000 12.250001 -11.476562
v 0.598145 -20.750000 -0.542971
v 0.598145 -20.750000 0.542966
v -26.562500 2.740234 0.542969
v -26.562500 2.740234 -0.542969
v 3.505859 -23.140625 -0.392825
v 0.598145 -20.750000 -0.542971
v -17.875000 0.879884 -8.000000
v -16.968750 1.267579 -8.554688
v 3.505859 -23.140625 -0.392825
v 3.505859 -23.140625 0.601071
v 17.171875 4.617187 10.570314
v 17.250000 3.564452 10.312500
v 22.703125 6.617188 0.530274
v 22.703125 6.617188 0.530274
v 22.625000 7.613281 0.528810
v 17.171875 4.617187 10.570314
v 22.625000 7.613281 -0.810546
v 22.703125 6.617188 -0.816405
v 17.250000 3.564454 -10.312500
v 17.250000 3.564454 -10.312500
v 17.171875 4.617189 -10.570312
v 22.625000 7.613281 -0.810546
v 17.250000 3.564452 10.312500
v 17.171875 4.617187 10.570314
v 16.328125 4.773437 11.101564
v 16.328125 4.773437 11.101564
v 16.421875 3.722655 10.851563
v 17.250000 3.564452 10.312500
v 16.421875 3.724610 -10.851563
v 16.328125 4.773439 -11.101562
v 17.171875 4.617189 -10.570312
v 17.171875 4.617189 -10.570312
v 17.250000 3.564454 -10.312500
v 16.421875 3.724610 -10.851563
v 22.703125 6.617188 -0.816405
v 22.625000 7.613281 -0.810546
v 22.625000 7.613281 0.528810
v 22.625000 7.613281 0.528810
v 22.703125 6.617188 0.530274
v 22.703125 6.617188 -0.816405
vt 0.743164 0.899475
vt 0.552734 0.892578
vt 0.631348 0.667236
vt 0.699707 0.686279
vt 0.432617 0.692871
vt 0.251709 0.940887
vt 0.635742 0.648438
vt 0.427979 0.671143
vt 0.263184 0.503174
vt 0.589844 0.057617
vt 0.764648 0.544922
vt 0.761719 0.568848
vt 0.703613 0.666992
vt 0.789551 0.547363
vt 0.636230 0.091797
vt 0.960938 0.575195
vt 0.787109 0.572998
vt 0.954102 0.611572
vt 0.773438 0.886841
vt 0.719238 0.685547
vt 0.226807 0.923584
vt 0.040009 0.530762
vt 0.238037 0.517578
vt 0.406738 0.690186
vt 0.237671 0.494629
vt 0.042542 0.498535
vt 0.530762 0.082520
vt 0.743164 0.899475
vt 0.699707 0.686279
vt 0.631348 0.667236
vt 0.552734 0.892578
vt 0.432617 0.692871
vt 0.251709 0.940887
vt 0.764648 0.544922
vt 0.589844 0.057617
vt 0.263184 0.503174
vt 0.761719 0.568604
vt 0.635742 0.648438
vt 0.427979 0.671143
vt 0.703613 0.666992
vt 0.789551 0.547363
vt 0.960938 0.575195
vt 0.636230 0.091797
vt 0.785645 0.572266
vt 0.719238 0.685547
vt 0.773438 0.886841
vt 0.954102 0.611572
vt 0.226807 0.923584
vt 0.406738 0.690186
vt 0.238037 0.517578
vt 0.040009 0.530762
vt 0.237671 0.494629
vt 0.530762 0.082520
vt 0.042542 0.498535
vt 0.006451 0.538574
vt 0.005863 0.490234
vt 0.042542 0.498535
vt 0.040009 0.530762
vt 0.226807 0.923584
vt 0.251709 0.940887
vt 0.245728 0.967438
vt 0.210449 0.945953
vt 0.406738 0.690186
vt 0.427979 0.671143
vt 0.432617 0.692871
vt 0.703613 0.666992
vt 0.719238 0.685547
vt 0.699707 0.686279
vt 0.237671 0.494629
vt 0.263184 0.503174
vt 0.238037 0.517578
vt 0.719238 0.685547
vt 0.703613 0.666992
vt 0.699707 0.686279
vt 0.743164 0.899475
vt 0.773438 0.886841
vt 0.790527 0.918091
vt 0.748535 0.930542
vt 0.432617 0.692871
vt 0.427979 0.671143
vt 0.406738 0.690186
vt 0.653320 0.070313
vt 0.636230 0.091797
vt 0.589844 0.057617
vt 0.592285 0.033203
vt 0.238037 0.517578
vt 0.263184 0.503174
vt 0.237671 0.494629
vt 0.226807 0.923584
vt 0.210449 0.945953
vt 0.006451 0.538574
vt 0.040009 0.530762
vt 0.552734 0.892578
vt 0.553711 0.923828
vt 0.245728 0.967438
vt 0.251709 0.940887
vt 0.251709 0.940887
vt 0.226807 0.923584
vt 0.406738 0.690186
vt 0.432617 0.692871
vt 0.635742 0.648438
vt 0.631348 0.667236
vt 0.631348 0.667236
vt 0.635742 0.648438
vt 0.703613 0.666992
vt 0.699707 0.686279
vt 0.589844 0.057617
vt 0.636230 0.091797
vt 0.789551 0.547363
vt 0.764648 0.544922
vt 0.719238 0.685547
vt 0.703613 0.666992
vt 0.761719 0.568848
vt 0.787109 0.572998
vt 0.699707 0.686279
vt 0.719238 0.685547
vt 0.773438 0.886841
vt 0.743164 0.899475
vt 0.040009 0.530762
vt 0.042542 0.498535
vt 0.237671 0.494629
vt 0.238037 0.517578
vt 0.427979 0.671143
vt 0.406738 0.690186
vt 0.238037 0.517578
vt 0.263184 0.503174
vt 0.263184 0.503174
vt 0.237671 0.494629
vt 0.530762 0.082520
vt 0.589844 0.057617
vt 0.743164 0.899475
vt 0.773438 0.886841
vt 0.719238 0.685547
vt 0.699707 0.686279
vt 0.553711 0.923828
vt 0.552734 0.892578
vt 0.743164 0.899475
vt 0.748535 0.930542
vt 0.699707 0.686279
vt 0.703613 0.666992
vt 0.635742 0.648438
vt 0.631348 0.667236
vt 0.432617 0.692871
vt 0.406738 0.690186
vt 0.226807 0.923584
vt 0.251709 0.940887
vt 0.631348 0.667236
vt 0.635742 0.648438
vt 0.427979 0.671143
vt 0.432617 0.692871
vt 0.785645 0.572266
vt 0.761719 0.568604
vt 0.703613 0.666992
vt 0.719238 0.685547
vt 0.764648 0.544922
vt 0.789551 0.547363
vt 0.636230 0.091797
vt 0.589844 0.057617
vt 0.995117 0.576660
vt 0.960938 0.575195
vt 0.790527 0.918091
vt 0.773438 0.886841
vt 0.954102 0.611572
vt 0.987793 0.617920
vt 0.238037 0.517578
vt 0.237671 0.494629
vt 0.042542 0.498535
vt 0.040009 0.530762
vt 0.263184 0.503174
vt 0.238037 0.517578
vt 0.406738 0.690186
vt 0.427979 0.671143
vt 0.517090 0.056152
vt 0.530762 0.082520
vt 0.042542 0.498535
vt 0.005863 0.490234
vt 0.589844 0.057617
vt 0.530762 0.082520
vt 0.237671 0.494629
vt 0.263184 0.503174
vt 0.592285 0.033203
vt 0.589844 0.057617
vt 0.787109 0.572998
vt 0.789551 0.547363
vt 0.960938 0.575195
vt 0.960938 0.575195
vt 0.954102 0.611572
vt 0.787109 0.572998
vt 0.954102 0.611572
vt 0.960938 0.575195
vt 0.789551 0.547363
vt 0.789551 0.547363
vt 0.785645 0.572266
vt 0.954102 0.611572
vt 0.789551 0.547363
vt 0.787109 0.572998
vt 0.761719 0.568848
vt 0.761719 0.568848
vt 0.764648 0.544922
vt 0.789551 0.547363
vt 0.764648 0.544922
vt 0.761719 0.568604
vt 0.785645 0.572266
vt 0.785645 0.572266
vt 0.789551 0.547363
vt 0.764648 0.544922
vt 0.995117 0.576660
vt 0.987793 0.617920
vt 0.954102 0.611572
vt 0.954102 0.611572
vt 0.960938 0.575195
vt 0.995117 0.576660
vn -0.3383 0.6981 0.6311
vn 0.0457 0.7967 0.6026
vn -0.2244 0.7832 0.5799
vn -0.5631 0.6507 0.5095
vn 0.2322 0.8141 0.5322
vn 0.2864 0.7821 0.5534
vn -0.0673 -0.1326 0.9889
vn -0.0063 -0.2512 0.9679
vn -0.0346 -0.2800 0.9594
vn -0.0397 -0.3395 0.9398
vn -0.0456 -0.2776 0.9596
vn -0.0625 -0.1882 0.9801
vn -0.0995 -0.1551 0.9829
vn 0.8073 -0.5143 0.2896
vn 0.7122 0.5493 0.4370
vn 0.6395 0.5695 0.5165
vn 0.7263 0.5447 0.4193
vn 0.8202 0.4982 0.2813
vn -0.5646 0.3156 0.7626
vn -0.5819 0.3124 0.7508
vn -0.5692 0.3147 0.7595
vn -0.5514 0.3180 0.7713
vn -0.5675 -0.6562 0.4974
vn -0.3383 0.6981 -0.6311
vn -0.5631 0.6507 -0.5095
vn -0.2244 0.7832 -0.5799
vn 0.0457 0.7967 -0.6026
vn 0.2322 0.8141 -0.5322
vn 0.2864 0.7821 -0.5534
vn -0.0451 -0.2823 -0.9583
vn -0.0390 -0.3462 -0.9374
vn -0.0341 -0.2842 -0.9581
vn -0.0624 -0.1902 -0.9798
vn -0.0673 -0.1326 -0.9889
vn -0.0063 -0.2514 -0.9679
vn -0.0995 -0.1551 -0.9829
vn 0.8041 -0.5153 -0.2964
vn 0.7062 0.5516 -0.4438
vn 0.8201 0.4983 -0.2814
vn 0.7224 0.5461 -0.4241
vn 0.6291 0.5715 -0.5269
vn -0.5646 0.3156 -0.7626
vn -0.5514 0.3180 -0.7713
vn -0.5692 0.3147 -0.7595
vn -0.5816 0.3123 -0.7511
vn -0.5675 -0.6562 -0.4974
vn -0.9245 -0.3813 -0.0000
vn -0.9245 -0.3812 0.0000
vn -0.1933 0.9811 0.0000
vn -0.1027 0.4121 0.9053
vn 0.0100 0.3929 0.9195
vn 0.0192 0.3932 0.9192
vn 0.1937 0.4779 0.8568
vn -0.4265 -0.2467 0.8702
vn 0.1937 0.4779 -0.8568
vn 0.3617 0.9323 -0.0000
vn 0.3616 0.9323 0.0000
vn -0.1027 0.4121 -0.9053
vn 0.8270 -0.5622 -0.0000
vn 0.8264 -0.5631 0.0000
vn 0.8092 -0.5875 -0.0000
vn -0.4265 -0.2467 -0.8702
vn -0.8802 0.4745 0.0000
vn -0.8804 0.4743 0.0000
vn 0.3401 0.9404 0.0000
vn -0.2059 0.6017 0.7717
vn -0.2069 0.6013 0.7718
vn -0.1756 0.6179 0.7664
vn -0.1745 0.6183 0.7663
vn 0.1173 0.4552 0.8826
vn 0.1188 0.4616 0.8791
vn -0.3328 0.2094 0.9195
vn -0.3302 0.2015 0.9222
vn -0.3455 0.2482 0.9050
vn -0.3477 0.2544 0.9024
vn 0.7120 -0.5328 0.4574
vn 0.7328 -0.5315 0.4248
vn 0.4164 -0.4923 0.7643
vn 0.4079 -0.4901 0.7704
vn 0.4798 0.2503 0.8409
vn 0.4751 0.2476 0.8444
vn 0.5461 0.2874 0.7869
vn 0.5500 0.2894 0.7834
vn 0.2285 0.8026 0.5510
vn 0.2268 0.8028 0.5513
vn 0.2601 0.7957 0.5470
vn 0.2616 0.7954 0.5467
vn -0.6629 -0.1757 0.7278
vn -0.6623 -0.1736 0.7288
vn -0.6644 -0.2001 0.7201
vn -0.6644 -0.2016 0.7196
vn -0.3182 0.0515 0.9466
vn -0.3209 0.0546 0.9455
vn -0.2759 0.0014 0.9612
vn -0.2738 -0.0012 0.9618
vn -0.2823 -0.5187 0.8070
vn -0.2760 -0.5154 0.8113
vn -0.5253 -0.6282 0.5739
vn -0.5282 -0.6292 0.5701
vn 0.2602 0.7973 -0.5447
vn 0.2622 0.7970 -0.5440
vn 0.2285 0.8010 -0.5534
vn 0.2270 0.8013 -0.5536
vn -0.3530 0.9356 -0.0000
vn -0.3528 0.9357 -0.0000
vn -0.3529 0.9357 0.0000
vn -0.3526 0.2437 -0.9035
vn -0.3577 0.2489 -0.9000
vn -0.3245 0.2150 -0.9211
vn -0.3189 0.2092 -0.9244
vn -0.1767 0.6194 -0.7649
vn -0.1751 0.6204 -0.7645
vn -0.2049 0.6005 -0.7729
vn -0.2066 0.5994 -0.7733
vn 0.1111 0.4556 -0.8832
vn 0.1113 0.4580 -0.8819
vn 0.1045 0.3763 -0.9206
vn 0.1041 0.3729 -0.9220
vn 0.5418 0.2968 -0.7864
vn 0.5494 0.3037 -0.7784
vn 0.4843 0.2442 -0.8401
vn 0.4814 0.2415 -0.8426
vn 0.4046 -0.5045 -0.7628
vn 0.3986 -0.5036 -0.7665
vn 0.6590 -0.5262 -0.5374
vn 0.6619 -0.5261 -0.5339
vn 0.8432 -0.5376 -0.0000
vn 0.8429 -0.5381 0.0000
vn 0.7467 0.6652 0.0000
vn -0.6626 -0.2005 -0.7217
vn -0.6623 -0.2021 -0.7214
vn -0.6644 -0.1756 -0.7265
vn -0.6643 -0.1744 -0.7268
vn -0.2730 0.0048 -0.9620
vn -0.2708 0.0029 -0.9626
vn -0.3214 0.0477 -0.9457
vn -0.3235 0.0496 -0.9449
vn -0.6448 -0.7644 0.0000
vn -0.6446 -0.7645 0.0000
vn -0.6538 -0.7567 -0.0000
vn -0.4583 -0.6120 -0.6445
vn -0.4799 -0.6228 -0.6179
vn -0.2856 -0.5110 -0.8107
vn -0.2810 -0.5080 -0.8142
vn -0.6348 -0.7727 -0.0000
vn 0.8789 -0.0515 0.4741
vn 0.8678 0.0700 0.4920
vn 0.8549 0.0714 -0.5139
vn 0.8785 -0.0519 -0.4749
vn 0.5070 -0.1657 0.8459
vn 0.5188 -0.1533 0.8411
vn 0.5084 -0.1584 -0.8464
vn 0.5138 -0.1643 -0.8420
vn 0.9968 0.0797 0.0000
usemtl gem_heart
s 1
f 1/1/1 2/2/2 3/3/3
f 3/3/3 4/4/4 1/1/1
f 5/5/5 3/3/3 2/2/2
f 2/2/2 6/6/6 5/5/5
f 7/7/7 8/8/8 9/9/9
f 9/9/9 10/10/10 11/11/11
f 9/9/9 11/11/11 12/12/12
f 7/7/7 9/9/9 12/12/12
f 13/13/13 7/7/7 12/12/12
f 14/14/14 15/15/14 16/16/14
f 17/17/15 18/18/16 19/19/17
f 19/19/17 20/20/18 17/17/15
f 21/21/19 22/22/20 23/23/21
f 23/23/21 24/24/22 21/21/19
f 25/25/23 26/26/23 27/27/23
f 28/28/24 29/29/25 30/30/26
f 30/30/26 31/31/27 28/28/24
f 31/31/27 30/30/26 32/32/28
f 32/32/28 33/33/29 31/31/27
f 34/34/30 35/35/31 36/36/32
f 37/37/33 34/34/30 36/36/32
f 37/37/33 36/36/32 38/38/34
f 36/36/32 39/39/35 38/38/34
f 40/40/36 37/37/33 38/38/34
f 41/41/37 42/42/37 43/43/37
f 44/44/38 45/45/39 46/46/40
f 46/46/40 47/47/41 44/44/38
f 48/48/42 49/49/43 50/50/44
f 50/50/44 51/51/45 48/48/42
f 52/52/46 53/53/46 54/54/46
f 55/55/47 56/56/47 57/57/47
f 57/57/47 58/58/48 55/55/47
f 59/59/49 60/60/49 61/61/49
f 61/61/49 62/62/49 59/59/49
f 63/63/50 64/64/51 65/65/52
f 66/66/53 67/67/53 68/68/53
f 69/69/54 70/70/54 71/71/54
f 72/72/55 73/73/55 74/74/55
f 75/75/56 76/76/56 77/77/56
f 77/77/56 78/78/57 75/75/56
f 79/79/58 80/80/58 81/81/58
f 82/82/59 83/83/60 84/84/61
f 84/84/61 85/85/61 82/82/59
f 86/86/62 87/87/62 88/88/62
f 89/89/63 90/90/64 91/91/63
f 91/91/63 92/92/64 89/89/63
f 93/93/65 94/94/65 95/95/65
f 95/95/65 96/96/65 93/93/65
f 97/97/66 98/98/67 99/99/68
f 99/99/68 100/100/69 97/97/66
f 65/65/52 64/64/51 101/101/70
f 101/101/70 102/102/71 65/65/52
f 103/103/72 104/104/73 105/105/74
f 105/105/74 106/106/75 103/103/72
f 107/107/76 108/108/77 109/109/78
f 109/109/78 110/110/79 107/107/76
f 111/111/80 112/112/81 113/113/82
f 113/113/82 114/114/83 111/111/80
f 115/115/84 116/116/85 117/117/86
f 117/117/86 118/118/87 115/115/84
f 119/119/88 120/120/89 121/121/90
f 121/121/90 122/122/91 119/119/88
f 123/123/92 124/124/93 125/125/94
f 125/125/94 126/126/95 123/123/92
f 127/127/96 128/128/97 129/129/98
f 129/129/98 130/130/99 127/127/96
f 131/131/100 132/132/101 133/133/102
f 133/133/102 134/134/103 131/131/100
f 135/135/104 136/136/105 137/137/106
f 137/137/106 138/138/104 135/135/104
f 139/139/107 140/140/108 141/141/109
f 141/141/109 142/142/110 139/139/107
f 143/143/111 144/144/112 145/145/113
f 145/145/113 146/146/114 143/143/111
f 147/147/115 148/148/116 149/149/117
f 149/149/117 150/150/118 147/147/115
f 151/151/119 152/152/120 153/153/121
f 153/153/121 154/154/122 151/151/119
f 155/155/123 156/156/124 157/157/125
f 157/157/125 158/158/126 155/155/123
f 83/83/60 82/82/59 159/159/127
f 159/159/127 160/160/128 83/83/60
f 161/161/129 162/162/129 163/163/129
f 163/163/129 164/164/129 161/161/129
f 165/165/130 166/166/131 167/167/132
f 167/167/132 168/168/133 165/165/130
f 169/169/134 170/170/135 171/171/136
f 171/171/136 172/172/137 169/169/134
f 173/173/138 174/174/139 175/175/140
f 175/175/140 176/176/140 173/173/138
f 177/177/141 178/178/142 179/179/143
f 179/179/143 180/180/144 177/177/141
f 174/174/139 173/173/138 181/181/145
f 181/181/145 182/182/145 174/174/139
f 183/183/146 184/184/146 185/185/146
f 186/186/147 187/187/147 188/188/147
f 189/189/148 190/190/148 191/191/148
f 192/192/149 193/193/149 194/194/149
f 195/195/150 196/196/150 197/197/150
f 198/198/151 199/199/151 200/200/151
f 201/201/152 202/202/152 203/203/152
f 204/204/153 205/205/153 206/206/153
f 207/207/154 208/208/154 209/209/154
f 210/210/154 211/211/154 212/212/154
